<svg viewBox="0 0 140 65" fill="none" xmlns="http://www.w3.org/2000/svg"><g fill="#4401FF"><path d="M115.42 32.138l-1.728-.691c-.691-.26-1.181-.49-1.382-.749-.259-.26-.375-.49-.375-.922 0-.921.692-1.44 2.103-1.44.806 0 1.613.116 2.362.375.259.057.432.115.489.115.173 0 .317-.115.317-.374v-.605a.95.95 0 0 0-.115-.432c-.058-.115-.173-.173-.375-.26a8.646 8.646 0 0 0-2.793-.49c-1.181 0-2.189.318-2.909.865-.749.547-1.124 1.382-1.124 2.304 0 1.44.807 2.477 2.42 3.11l1.872.692c.634.26 1.008.432 1.238.691.26.26.317.49.317.864 0 .49-.173.922-.547 1.181-.374.26-.922.432-1.613.432-1.066 0-2.045-.115-3.053-.432-.259-.058-.432-.115-.547-.115-.173 0-.259.115-.259.374v.634a.95.95 0 0 0 .115.432c.057.058.173.173.374.26 1.008.431 2.103.633 3.37.633 1.296 0 2.304-.317 3.111-.922.806-.634 1.181-1.44 1.181-2.477 0-.749-.173-1.296-.548-1.814-.403-.49-1.037-.922-1.901-1.239zm-8.208-5.155h-1.296c-.375 0-.49.173-.49.432v8.266c-1.065.691-2.102 1.066-3.168 1.066-.691 0-1.181-.173-1.498-.548-.317-.374-.432-.921-.432-1.728v-7.056c0-.317-.115-.432-.432-.432H98.6c-.317 0-.432.115-.432.432v7.719c0 1.065.26 1.93.807 2.477.547.547 1.382.864 2.419.864 1.44 0 2.851-.49 4.234-1.498l.115.749c0 .173.058.259.173.317.057.057.173.057.374.057h.922c.317 0 .432-.115.432-.432V27.415c0-.317-.115-.432-.432-.432zm-15.064-.317c-1.44 0-2.908.49-4.348 1.555-.49-1.066-1.44-1.555-2.794-1.555s-2.737.49-4.119 1.44l-.115-.691c0-.173-.058-.26-.173-.317-.058-.058-.173-.058-.317-.058h-1.008c-.317 0-.432.116-.432.432v10.311c0 .317.115.432.432.432h1.296c.317 0 .432-.115.432-.432v-8.38c1.066-.635 2.103-1.009 3.226-1.009.634 0 1.066.173 1.296.547.26.375.432.864.432 1.613v7.143c0 .317.115.432.432.432h1.296c.317 0 .432-.115.432-.432v-8.295c1.124-.691 2.19-1.008 3.226-1.008.634 0 1.066.173 1.296.547.26.375.432.864.432 1.613v7.143c0 .317.115.432.432.432h1.296c.317 0 .432-.115.432-.432V29.92c0-1.065-.259-1.872-.806-2.419-.46-.518-1.21-.835-2.276-.835zm35.168 2.794c.547-.634 1.44-.922 2.678-.922.634 0 1.239.058 1.815.26.173.057.259.057.374.057.173 0 .317-.115.317-.432v-.634c0-.173-.058-.374-.115-.432-.058-.057-.173-.173-.317-.26-.806-.172-1.613-.373-2.362-.373-1.728 0-3.053.49-4.032 1.555-.922 1.008-1.44 2.477-1.44 4.349s.432 3.283 1.382 4.291c.922 1.008 2.247 1.498 3.975 1.498.922 0 1.815-.115 2.477-.432.173-.058.317-.115.374-.26.058-.057.058-.258.058-.431v-.634c0-.317-.115-.432-.317-.432-.057 0-.173 0-.317.058-.691.172-1.382.316-1.987.316-1.181 0-2.045-.316-2.621-.921-.547-.634-.806-1.613-.806-2.91v-.316c.028-1.382.288-2.362.864-2.995zm-5.847-2.477h-1.296c-.317 0-.432.115-.432.432v10.31c0 .318.115.433.432.433h1.296c.317 0 .432-.115.432-.432V27.415c0-.26-.144-.432-.432-.432zm.374-4.234c-.259-.26-.633-.375-1.065-.375-.432 0-.749.116-1.008.375-.26.26-.375.547-.375.922 0 .374.115.748.375.921.259.26.547.375 1.008.375.46 0 .748-.116 1.008-.375.259-.26.374-.547.374-.921-.029-.375-.086-.75-.317-.922zM47.967 41.355c-4.32 1.843-9.015 2.707-13.25 2.707-6.307 0-12.413-1.728-17.338-4.58-.432-.259-.749.173-.403.52 4.58 4.118 10.628 6.624 17.338 6.624 4.81 0 10.37-1.498 14.2-4.35.633-.46.086-1.152-.547-.921z"/><path d="M45.547 39.8c-.345.23-.288.547.087.518 1.238-.173 4.003-.49 4.464.144.49.662-.547 3.226-1.008 4.378-.144.345.173.49.49.23 2.073-1.728 2.592-5.328 2.188-5.847-.432-.518-4.003-.979-6.22.577zm-26.411-1.556h2.045c.23 0 .403-.173.403-.345V32.31c0-1.238-.058-2.909 1.411-2.909 1.44 0 1.239 1.728 1.239 2.91v5.558c0 .173.173.345.374.374h2.045c.202 0 .403-.173.403-.374V32.31c0-.605-.028-1.498.173-2.016a1.352 1.352 0 0 1 1.239-.864c.605 0 1.037.202 1.21.893.086.403.057 1.526.057 1.958v5.559c0 .173.173.346.374.374h2.017c.201 0 .403-.172.403-.374v-6.624c0-1.124.144-2.42-.519-3.284-.576-.806-1.497-1.152-2.361-1.152-1.21 0-2.333.634-2.823 1.959-.547-1.325-1.382-1.959-2.65-1.959-1.238 0-2.218.634-2.678 1.959h-.058v-1.383c-.029-.173-.173-.346-.374-.346h-1.901c-.202 0-.404.173-.404.375V37.87a.459.459 0 0 0 .375.374zm21.227-7.114c-1.181.144-2.736.23-3.86.72-1.267.547-2.189 1.67-2.189 3.341 0 2.103 1.354 3.168 3.053 3.168 1.44 0 2.247-.345 3.37-1.497.375.547.519.806 1.181 1.382a.436.436 0 0 0 .49-.057c.403-.346 1.152-1.008 1.613-1.354.172-.115.144-.346 0-.547-.375-.548-.778-.95-.778-1.901v-3.168c0-1.354.086-2.593-.893-3.514-.777-.778-2.074-1.008-3.082-1.008-1.958 0-4.118.72-4.58 3.14-.057.258.145.373.289.402l1.958.202c.173 0 .288-.173.346-.375.173-.835.864-1.238 1.642-1.238.403 0 .892.173 1.123.547.288.403.26 1.008.26 1.498v.26h.057zm-.375 4.263c-.317.576-.835.921-1.41.921-.779 0-1.24-.604-1.24-1.497 0-1.728 1.556-2.074 3.054-2.074v.432c-.03.835-.03 1.498-.404 2.218zm30.703-8.583c-1.411 0-2.218.662-2.794 2.103h-.057V27.3c-.058-.173-.173-.289-.375-.289h-1.9a.431.431 0 0 0-.404.346V37.87c0 .173.173.345.375.374h2.045c.201 0 .403-.173.403-.374v-5.674c0-.72.057-1.354.317-1.988.23-.518.69-.835 1.18-.835 1.412 0 1.268 1.67 1.268 2.823v5.703c.029.172.173.288.374.316h2.045c.202 0 .374-.144.403-.316v-6.596c0-1.008 0-2.448-.547-3.283-.518-.893-1.411-1.21-2.333-1.21zm-17.655 8.583c-1.152-.663-2.535-.835-3.831-.807l3.485-4.954c.317-.46.518-.748.518-.95v-1.267c0-.202-.172-.375-.403-.375h-6.71a.363.363 0 0 0-.375.375v1.497c0 .202.173.375.403.375h3.514l-4.032 5.789c-.26.374-.26.778-.26 1.008v1.527c0 .23.26.46.49.345 2.276-1.238 5.04-1.123 7.085-.029.26.144.49-.115.49-.345v-1.613c-.057-.23-.115-.46-.374-.576zm-35.83.95c-.374-.547-.777-.95-.777-1.9v-3.169c0-1.354.086-2.592-.893-3.514-.778-.777-2.074-1.008-3.082-1.008-1.959 0-4.119.72-4.58 3.14-.057.259.144.374.288.403l1.959.201c.173 0 .288-.172.346-.374.172-.835.864-1.238 1.641-1.238.404 0 .893.172 1.124.547.288.403.259 1.008.259 1.498v.259c-1.181.144-2.736.23-3.86.72-1.238.49-2.131 1.613-2.131 3.283 0 2.103 1.354 3.168 3.053 3.168 1.44 0 2.247-.345 3.37-1.497.374.547.518.806 1.18 1.382a.436.436 0 0 0 .49-.057c.403-.346 1.152-1.008 1.613-1.354.144-.087.144-.317 0-.49zm-4.032-.95c-.317.576-.835.922-1.411.922-.778 0-1.239-.605-1.239-1.498 0-1.728 1.556-2.074 3.053-2.074v.432c-.029.835 0 1.498-.403 2.218zm45.824-8.583c-2.967 0-4.609 2.563-4.58 5.818 0 3.254 1.613 5.847 4.58 5.847 2.88 0 4.694-2.564 4.694-5.76 0-3.313-1.641-5.905-4.694-5.905zm-.03 9.505c-1.612 0-1.583-2.737-1.583-4.004 0-1.267.086-3.34 1.613-3.34.662 0 1.123.287 1.353 1.007.26.835.288 1.901.288 2.794 0 1.325-.086 3.542-1.67 3.542z"/></g></svg>