<svg viewBox="0 0 140 65" xmlns="http://www.w3.org/2000/svg"><g fill="none" fill-rule="evenodd"><path d="M112.55 16h-38.6a3.89 3.89 0 0 0-3.7 2.73c-.06.17-.3.17-.35 0A3.89 3.89 0 0 0 66.19 16h-38.6A2.6 2.6 0 0 0 25 18.6v17.16a2.6 2.6 0 0 0 2.6 2.59h38.59a3.89 3.89 0 0 1 3.7 2.73c.06.17.3.17.36 0a3.89 3.89 0 0 1 3.7-2.73h38.6a2.6 2.6 0 0 0 2.6-2.6V18.6a2.6 2.6 0 0 0-2.6-2.59" fill="#E4004F"/><path fill="#000" d="M47.15 46.31h6.11v1.22h-6.11zm39.73 0h6.11v1.22h-6.11z"/><path d="M34.52 28.28h-3.95v2.15c0 .08.02.15.07.2.05.05.13.09.25.11v.14h-2.14v-.14c.12-.03.2-.07.25-.11a.27.27 0 0 0 .07-.2v-5.05c0-.09-.02-.16-.07-.2a.54.54 0 0 0-.25-.12v-.14h2.14v.14a.5.5 0 0 0-.25.11.28.28 0 0 0-.07.2v1.93h3.95v-1.92a.28.28 0 0 0-.08-.2.5.5 0 0 0-.25-.12v-.14h2.14v.14a.54.54 0 0 0-.25.12c-.05.04-.07.11-.07.2v5.05c0 .08.02.15.07.2.05.04.13.08.25.11v.14H34.2v-.14c.12-.02.2-.06.25-.11a.27.27 0 0 0 .08-.2v-2.15zm7.81 2.6l-2.53-4.11v3.65c0 .1.03.16.07.2.05.05.13.1.25.12v.14h-2v-.14a.6.6 0 0 0 .24-.11.27.27 0 0 0 .07-.2v-5.05c0-.09-.02-.16-.07-.2a.54.54 0 0 0-.25-.12v-.14h2.64v.14c-.16.04-.23.12-.23.24 0 .06.02.13.07.2l1.87 3.08 1.89-3.02c.08-.14.12-.23.12-.3 0-.12-.08-.18-.25-.2v-.14h2.6v.14a.54.54 0 0 0-.26.12.28.28 0 0 0-.07.2v5.04c0 .1.03.16.07.2.05.05.13.1.25.12v.14h-2.13v-.14c.11-.02.2-.06.24-.11a.28.28 0 0 0 .08-.2v-3.66l-2.67 4.11zm10.01-1.73l1.82-3.5a.83.83 0 0 0 .12-.34c0-.13-.11-.2-.33-.25v-.14h2.34v.14c-.15.02-.25.06-.3.11a2.5 2.5 0 0 0-.3.48l-2.38 4.46c-.1.19-.15.31-.15.37 0 .15.1.23.32.26v.14h-2.36v-.14c.21-.03.31-.11.31-.26 0-.06-.05-.18-.15-.37l-2.37-4.46a2.52 2.52 0 0 0-.3-.48c-.05-.05-.16-.09-.3-.1v-.15h2.43v.14c-.22.04-.33.12-.33.25 0 .08.04.2.11.34l1.82 3.5z" fill="#FFF"/><path d="M65.48 26.78v1.65h-.16c-.02-.14-.07-.22-.15-.22a.78.78 0 0 0-.34.13c-.14.09-.27.18-.38.29-.2.19-.34.4-.41.61.2.19.38.32.54.4.15.07.3.11.47.11.14 0 .23-.07.27-.2h.16v1.37c-.1-.02-.4-.04-.89-.07a3.1 3.1 0 0 1-1.44-.73 3.6 3.6 0 0 1-2.42.87c-.73 0-1.33-.16-1.81-.46-.55-.34-.82-.79-.82-1.35 0-.75.5-1.34 1.52-1.77-.45-.34-.67-.72-.67-1.13 0-.47.26-.85.78-1.13.43-.22.91-.33 1.46-.33.62 0 1.16.13 1.62.4.45.26.67.63.67 1.1 0 .25-.06.47-.2.65a2.3 2.3 0 0 1-.7.58 2 2 0 0 1 .8.83c.33-.48.64-.84.95-1.08.3-.23.69-.4 1.15-.52m-4.61 1.17c-.38 0-.7.1-.97.28-.28.2-.41.43-.41.71 0 .3.13.55.4.74.26.2.6.29 1.02.29.43 0 .8-.1 1.1-.28.3-.18.45-.4.45-.66a.75.75 0 0 0-.14-.39 1.5 1.5 0 0 0-.35-.36c-.3-.22-.68-.33-1.1-.33m.36-2.25c-.26 0-.48.06-.67.17a.63.63 0 0 0-.37.59c0 .21.1.4.3.53.2.15.44.22.74.22.25 0 .48-.06.67-.17.24-.14.36-.33.36-.57 0-.23-.1-.41-.28-.55-.2-.14-.44-.21-.75-.22m13.4 2.06c.77.25 1.15.72 1.15 1.4 0 .55-.22.98-.67 1.28-.23.16-.5.27-.8.34-.3.07-.66.1-1.1.1h-4.69v-.14c.12-.03.2-.07.25-.11a.27.27 0 0 0 .07-.2v-5.05c0-.09-.02-.16-.07-.2a.55.55 0 0 0-.25-.12v-.14h4.64c.45 0 .8.03 1.08.1.27.05.5.15.7.29.41.27.62.67.62 1.2 0 .58-.31 1-.93 1.25zm-4.29-.47h2.63c.4 0 .67-.05.83-.15.18-.12.26-.3.26-.54 0-.25-.08-.43-.25-.53-.16-.11-.45-.16-.84-.16h-2.63v1.38zm0 2.6h2.54c.47 0 .81-.05 1.02-.16.24-.13.36-.35.36-.64 0-.3-.12-.51-.36-.64-.2-.12-.54-.17-1.02-.17h-2.54v1.62zm10.82-5.07c1.2 0 2.15.28 2.85.84a2.78 2.78 0 0 1 .57 3.88c-.7.96-1.83 1.45-3.4 1.45a4.4 4.4 0 0 1-2.83-.85c-.38-.3-.66-.66-.86-1.07a2.76 2.76 0 0 1 .27-2.8c.68-.95 1.8-1.43 3.4-1.45m0 1.01c-.65 0-1.19.17-1.63.5-.51.4-.77.93-.77 1.57 0 .65.26 1.17.77 1.57.44.33.99.5 1.65.5.66 0 1.2-.17 1.64-.5.25-.2.45-.45.59-.74.12-.26.18-.53.18-.8 0-.68-.26-1.2-.77-1.6a2.7 2.7 0 0 0-1.65-.5m9.53-1.01c1.19 0 2.14.28 2.84.84a2.78 2.78 0 0 1 .58 3.88c-.7.96-1.83 1.45-3.41 1.45a4.4 4.4 0 0 1-2.83-.85c-.38-.3-.66-.66-.86-1.07a2.76 2.76 0 0 1 .27-2.8c.68-.95 1.81-1.43 3.4-1.45m.01 1.01c-.65 0-1.2.17-1.63.5-.52.4-.78.93-.78 1.57 0 .65.26 1.17.78 1.57.43.33.98.5 1.64.5.66 0 1.2-.17 1.64-.5.26-.2.45-.45.6-.74.11-.26.17-.53.17-.8 0-.68-.26-1.2-.77-1.6a2.7 2.7 0 0 0-1.65-.5" fill="#FFF" fill-rule="nonzero"/><path d="M99.04 28.1l-1.03.73v1.6c0 .08.03.15.07.2.05.05.14.09.25.11v.14H96.2v-.14c.13-.03.2-.07.26-.11a.32.32 0 0 0 .07-.2v-5.05a.28.28 0 0 0-.07-.2.54.54 0 0 0-.26-.12v-.14h2.14v.14a.5.5 0 0 0-.25.11.27.27 0 0 0-.07.2v2.1l2.82-2c.13-.1.2-.18.2-.23 0-.09-.1-.14-.3-.18v-.14h2.8v.14a.93.93 0 0 0-.24.07l-.44.3-.39.28-2.33 1.63 2.64 2.76c.25.26.43.42.53.5a1 1 0 0 0 .41.14v.14h-2.67v-.14c.17-.03.26-.09.26-.16 0-.05-.08-.15-.24-.33l-2.02-2.15zm12.56-2.67l-.82 1.4-.14-.07v-.07c0-.1-.09-.2-.28-.32a4 4 0 0 0-2.1-.54c-.36 0-.67.04-.94.11-.2.06-.36.15-.48.27a.52.52 0 0 0-.18.38c0 .22.15.37.46.45.17.04.51.09 1.04.13l.79.07c.46.05.84.1 1.13.18.3.08.55.18.77.32a1.57 1.57 0 0 1 .74 1.3c0 .43-.15.8-.47 1.13-.28.3-.71.51-1.3.65a6.76 6.76 0 0 1-4.1-.4c-.2-.08-.31-.12-.35-.12-.04 0-.1.04-.2.1l-.15-.06.74-1.47.15.06V29c0 .13.07.25.22.36.21.17.55.32 1 .44a5 5 0 0 0 1.3.18c.44 0 .82-.06 1.14-.2.17-.07.31-.16.42-.28a.6.6 0 0 0 .15-.38c0-.2-.12-.34-.37-.42a5.52 5.52 0 0 0-1.03-.16l-.77-.07c-.52-.05-.89-.1-1.1-.14a3.1 3.1 0 0 1-.64-.2 1.6 1.6 0 0 1-.72-.59 1.56 1.56 0 0 1 .36-2.06c.52-.43 1.3-.65 2.35-.65a6.59 6.59 0 0 1 2.64.54c.2.07.31.1.35.1a.4.4 0 0 0 .25-.1l.14.07z" fill="#FFF"/><path d="M58.92 44.75c1.4 0 2.26.9 2.26 2.38 0 1.5-.85 2.39-2.26 2.39-1.4 0-2.26-.9-2.26-2.39 0-1.48.86-2.38 2.26-2.38m0 3.77c.67 0 1.04-.5 1.04-1.39 0-.89-.37-1.37-1.04-1.37-.66 0-1.05.48-1.05 1.37 0 .9.39 1.39 1.05 1.39" fill="#231815" fill-rule="nonzero"/><path d="M62.53 44.9h1.16v.54c.34-.43.8-.65 1.36-.65.98 0 1.47.51 1.47 1.54v3.04h-1.2v-2.7c0-.6-.17-.89-.68-.89-.56 0-.92.35-.92.94v2.65h-1.2V44.9zm5.56-1.57h1.19v6.04h-1.19z" fill="#231815"/><path d="M70.86 43.33h1.2v1.08h-1.2v-1.08zm0 1.58h1.2v4.46h-1.2V44.9z" fill="#231815" fill-rule="nonzero"/><path d="M73.62 44.9h1.16v.54c.34-.43.8-.65 1.36-.65.98 0 1.47.51 1.47 1.54v3.04h-1.2v-2.7c0-.6-.17-.89-.68-.89-.56 0-.92.35-.92.94v2.65h-1.2V44.9z" fill="#231815"/><path d="M83.11 48.02c-.24.93-1 1.5-2.06 1.5-1.27 0-2.1-.9-2.1-2.41 0-1.46.8-2.36 2.08-2.36 1.36 0 2.14.85 2.14 2.4v.3h-2.99c.03.7.34 1.06.92 1.06.4 0 .67-.15.82-.5h1.2zm-1.17-1.35c-.02-.6-.33-.92-.89-.92-.5 0-.82.32-.87.92h1.76z" fill="#231815" fill-rule="nonzero"/></g></svg>