<svg viewBox="0 0 140 65" xmlns="http://www.w3.org/2000/svg"><defs><radialGradient cx="-197.79%" cy="215.97%" fx="-197.79%" fy="215.97%" r="388.9%" gradientTransform="matrix(1 0 0 .74919 0 .54)" id="b"><stop stop-color="#FBE3F8" offset="0%"/><stop stop-color="#FBE3F8" offset="74.5%"/><stop stop-color="#FADEF6" offset="80.82%"/><stop stop-color="#F9D1F0" offset="87.98%"/><stop stop-color="#F6BAE7" offset="95.54%"/><stop stop-color="#F5B1E3" offset="98%"/><stop stop-color="#F5B1E3" offset="100%"/></radialGradient><radialGradient cx="-203.73%" cy="43.1%" fx="-203.73%" fy="43.1%" r="319.74%" gradientTransform="matrix(1 0 0 .87833 0 .05)" id="c"><stop stop-color="#F9E3FB" offset="0%"/><stop stop-color="#F9E3FB" offset="74.59%"/><stop stop-color="#F8DEFB" offset="80.97%"/><stop stop-color="#F3D0FA" offset="88.26%"/><stop stop-color="#ECBAF9" offset="95.99%"/><stop stop-color="#EAB2F9" offset="98.1%"/><stop stop-color="#EAB2F9" offset="100%"/></radialGradient><radialGradient cx="-176.08%" cy="-209.41%" fx="-176.08%" fy="-209.41%" r="557.32%" gradientTransform="matrix(.66662 0 0 1 -.59 0)" id="d"><stop stop-color="#FAE1F8" offset="0%"/><stop stop-color="#FAE1F8" offset="60%"/><stop stop-color="#F7D6F7" offset="85%"/><stop stop-color="#F7D6F7" offset="100%"/></radialGradient><radialGradient cx="222.6%" cy="187.15%" fx="222.6%" fy="187.15%" r="310.44%" gradientTransform="matrix(1 0 0 .87786 0 .23)" id="e"><stop stop-color="#FAE9FC" offset="0%"/><stop stop-color="#FAE9FC" offset="66.9%"/><stop stop-color="#F8DEFA" offset="81.18%"/><stop stop-color="#F6D4F8" offset="91%"/><stop stop-color="#F6D4F8" offset="100%"/></radialGradient><radialGradient cx="69.43%" cy="372.68%" fx="69.43%" fy="372.68%" r="396.76%" gradientTransform="matrix(.66653 0 0 1 .23 0)" id="f"><stop stop-color="#FAE9FB" offset="0%"/><stop stop-color="#FAE9FB" offset="68%"/><stop stop-color="#F8DEF8" offset="81.32%"/><stop stop-color="#F5CAF2" offset="98%"/><stop stop-color="#F5CAF2" offset="100%"/></radialGradient><linearGradient x1="50%" y1="0%" x2="50%" y2="100%" id="a"><stop stop-color="#EF4DB7" offset="0%"/><stop stop-color="#C643FD" offset="100%"/></linearGradient></defs><g fill="none" fill-rule="evenodd"><path d="M16.53 20.6h-.75l-.76.01a11 11 0 0 0-1.64.15 5.55 5.55 0 0 0-2.9 1.48 5.26 5.26 0 0 0-1.5 2.9 11 11 0 0 0-.14 1.65v.76l-.01.72v9.76a86.9 86.9 0 0 0 .01 1.47c.02.55.05 1.1.15 1.65a5.55 5.55 0 0 0 1.48 2.9 5.26 5.26 0 0 0 2.9 1.5c.55.09 1.1.12 1.65.14a31.94 31.94 0 0 0 1.5.01h10.46l.75-.01a11 11 0 0 0 1.65-.15 5.55 5.55 0 0 0 2.9-1.48 5.26 5.26 0 0 0 1.5-2.9 11 11 0 0 0 .14-1.66 31.94 31.94 0 0 0 0-1.48V26.79c-.02-.54-.05-1.1-.15-1.64a5.55 5.55 0 0 0-1.48-2.9 5.26 5.26 0 0 0-2.9-1.5c-.55-.1-1.1-.12-1.66-.14h-.75l-.75-.01h-9.7z" fill="url(#a)"/><path d="M126.4 34.38h4.55c-.05-1.39-.94-2.3-2.23-2.3-1.3 0-2.22.93-2.32 2.3zm6.3 2.71c-.24 1.65-1.85 2.79-3.9 2.79-2.65 0-4.3-1.77-4.3-4.62s1.66-4.7 4.22-4.7c2.51 0 4.1 1.73 4.1 4.49v.64h-6.43v.1c0 1.56.98 2.58 2.45 2.58 1.03 0 1.85-.49 2.1-1.28h1.77zm-13.2-6.41h1.77v1.54h.05a2.17 2.17 0 0 1 2.18-1.64c.27 0 .5.04.64.07v1.74a2.6 2.6 0 0 0-.84-.1c-1.2 0-1.94.8-1.94 2.08v5.4h-1.87v-9.1zm-3.36 4.54c0-1.96-.9-3.12-2.4-3.12-1.52 0-2.42 1.17-2.42 3.12 0 1.97.9 3.12 2.41 3.12 1.51 0 2.41-1.15 2.41-3.12zm-6.72 0c0-2.86 1.69-4.66 4.31-4.66 2.64 0 4.31 1.8 4.31 4.66 0 2.87-1.66 4.66-4.3 4.66-2.65 0-4.32-1.8-4.32-4.66zm-2.64-6.7v2.16h1.73v1.47h-1.73v5.01c0 .78.35 1.14 1.1 1.14.2 0 .5-.02.62-.04v1.47c-.2.05-.62.09-1.04.09-1.84 0-2.55-.7-2.55-2.46v-5.2h-1.32v-1.48h1.32v-2.16h1.87zm-11.6 7.77c.15 1.24 1.35 2.05 2.99 2.05 1.57 0 2.7-.81 2.7-1.93 0-.97-.68-1.54-2.3-1.94l-1.61-.4c-2.29-.54-3.35-1.61-3.35-3.35 0-2.15 1.87-3.63 4.53-3.63 2.64 0 4.44 1.48 4.5 3.63h-1.88c-.11-1.25-1.14-2-2.64-2-1.5 0-2.53.76-2.53 1.87 0 .88.65 1.4 2.26 1.8l1.37.33c2.56.6 3.62 1.64 3.62 3.46 0 2.33-1.85 3.8-4.81 3.8-2.76 0-4.63-1.43-4.75-3.69h1.9zm-10.33-5.72c2.02 0 3.46 1.12 3.5 2.72H86.6c-.08-.8-.76-1.3-1.8-1.3-1 0-1.68.47-1.68 1.18 0 .55.45.9 1.39 1.14l1.53.36c1.83.44 2.52 1.11 2.52 2.44 0 1.64-1.55 2.77-3.78 2.77-2.14 0-3.58-1.1-3.72-2.76h1.85c.13.87.83 1.34 1.96 1.34 1.12 0 1.82-.46 1.82-1.18 0-.57-.35-.87-1.3-1.11l-1.62-.4c-1.65-.4-2.48-1.23-2.48-2.5 0-1.6 1.45-2.7 3.56-2.7zM73.6 34.38h4.54c-.04-1.39-.93-2.3-2.23-2.3-1.28 0-2.22.93-2.31 2.3zm6.3 2.71c-.24 1.65-1.85 2.79-3.9 2.79-2.65 0-4.3-1.77-4.3-4.62s1.66-4.7 4.21-4.7c2.52 0 4.1 1.73 4.1 4.49v.64h-6.42v.1c0 1.56.98 2.58 2.45 2.58 1.03 0 1.84-.49 2.1-1.28h1.77zm-17.43-6.41h1.78v1.54h.04c.55-1.09 1.46-1.65 2.86-1.65 2 0 3.16 1.29 3.16 3.37v5.82h-1.88V34.3c0-1.36-.63-2.12-1.94-2.12-1.34 0-2.15.95-2.15 2.35v5.23h-1.87v-9.08zm-1.85 9.08h-1.78V38.2h-.05c-.52 1.09-1.42 1.67-2.81 1.67-1.98 0-3.2-1.28-3.2-3.36v-5.83h1.87v5.46c0 1.39.66 2.12 1.95 2.12 1.35 0 2.16-.93 2.16-2.35v-5.23h1.86v9.08zm-13.55 0v-10.8h-3.82V27.3h9.57v1.66H49v10.8h-1.94zm-6.84 0h1.87v-9.08h-1.87v9.08zm-.14-11.48c0-.6.48-1.07 1.08-1.07.6 0 1.09.48 1.09 1.07 0 .59-.49 1.06-1.1 1.06-.59 0-1.07-.47-1.07-1.06z" fill-opacity=".95" fill="#000"/><path d="M21.22 23.79a.52.52 0 0 0-.13.13l-.02.03c-.06.08-.1.16-.14.26l-.29.8-1.68 5.17h4.83l-1.68-5.16-.29-.81a.816.816 0 0 0-.14-.26l-.02-.03a.5.5 0 0 0-.13-.13.29.29 0 0 0-.16-.05c-.05 0-.1.02-.15.05" fill="url(#b)"/><path d="M21.37 37.6l4.4 3.2.7.49c.1.05.18.1.27.13h.04c.06.03.12.04.18.03.06 0 .11-.02.15-.05a.28.28 0 0 0 .1-.13.53.53 0 0 0 .03-.18v-.04c0-.1-.01-.2-.04-.29-.07-.28-.16-.55-.24-.83l-1.68-5.16-3.9 2.84z" fill="url(#c)"/><path d="M13.53 30.18l-.86.03c-.1 0-.2.02-.29.05h-.03a.5.5 0 0 0-.17.1.28.28 0 0 0-.09.13.29.29 0 0 0 0 .15c.01.06.04.12.08.17l.02.03c.06.08.13.15.2.21.23.19.46.36.69.53l4.4 3.2 1.48-4.6h-5.43z" fill="url(#d)"/><path d="M15.8 39.93c-.1.28-.18.55-.25.83-.02.1-.04.2-.04.3v.03c0 .07 0 .13.03.18.02.06.06.1.1.13.04.03.09.05.15.05a.5.5 0 0 0 .18-.02l.04-.01.26-.13c.24-.16.48-.32.71-.5l4.4-3.18-2.48-1.8-1.43-1.04-1.68 5.16z" fill="url(#e)"/><path d="M23.79 30.18l1.49 4.6 4.39-3.2c.23-.17.46-.34.68-.53.08-.06.15-.13.2-.2l.03-.04a.5.5 0 0 0 .08-.17.29.29 0 0 0 0-.15.28.28 0 0 0-.1-.13.5.5 0 0 0-.16-.1h-.03c-.1-.03-.2-.05-.3-.05-.28-.02-.57-.03-.85-.03h-5.43z" fill="url(#f)"/><path fill="#FFF" d="M18.96 30.18l-1.49 4.6 1.43 1.03 2.47 1.8 3.9-2.84-1.48-4.59z"/></g></svg>