<svg viewBox="0 0 140 65" xmlns="http://www.w3.org/2000/svg"><g fill="#E4006F" fill-rule="evenodd" fill-opacity=".95"><path d="M109.48 31.03v.03l-2.63 6.25a.25.25 0 0 1-.24.15h-3.75a.25.25 0 0 1-.23-.35l2.68-6.54c.96-2.32-.57-2.55-1.05-2.57h-3.13c-1.39 0-1.97 1-2.14 1.4l-1.43 3.68a.25.25 0 0 1-.24.16H93.6a.25.25 0 0 1-.24-.34l1.55-4c.35-.77.96-1.74 1.84-2.2 1.58-.82 2.94-.82 3.36-.82h5.07c1.08 0 2.67.08 3.85 1.43 1.22 1.4.5 3.55.45 3.72zm-22.67 6.1h-5.74a.28.28 0 0 1-.28-.28v-1.3c0-.15.13-.28.28-.28h5.18c1.56 0 1.45-1.4 1.45-1.67 0-.28-.28-.3-.28-.3h-6.35a.28.28 0 0 1-.28-.27v-1.1c0-.14.13-.27.28-.27h6.34c.24 0 .25-.2.25-.2v-.5c0-1.2-1.27-1.26-1.43-1.26h-5.16a.28.28 0 0 1-.28-.27v-1.3c0-.16.13-.28.28-.28h5.74c.5 0 4.4-.11 4.4 4.73 0 4.85-4.4 4.55-4.4 4.55zm-8.8-9.4c0 .15-.13.28-.28.28h-4.3a.28.28 0 0 0-.28.27v2.01c0 .15.13.28.28.28h4.3c.15 0 .27.12.27.27v1.56c0 .15-.12.28-.27.28h-4.3a.28.28 0 0 0-.28.27c-.19 4.34-4.7 4.54-5.32 4.54h-4.7a.27.27 0 0 1-.28-.27v-1.71c0-.15.12-.28.27-.28h3.94c1.72 0 1.92-1.78 1.92-2.22v-.06a.28.28 0 0 0-.27-.27h-5.58a.28.28 0 0 1-.28-.28v-1.56c0-.15.13-.27.28-.27h5.58c.15 0 .27-.13.27-.28v-2a.28.28 0 0 0-.27-.28h-5.58a.28.28 0 0 1-.28-.28v-1.56c0-.15.13-.27.28-.27h14.6c.15 0 .27.12.27.27v1.56zm-23.66 9.76h-7.72a.28.28 0 0 1-.28-.28v-1.86c0-.15.12-.27.28-.27h7.54c.24 0 2.1-.15 2.1-3.34 0-3.41-1.92-3.43-1.92-3.43h-7.72a.28.28 0 0 1-.28-.28v-1.86c0-.15.12-.27.28-.27h8.28c1.13.06 5.19.66 5.3 5.98-.27 5.99-5.86 5.6-5.86 5.6zm-9.8-3.05s0 .2-.14.32c-.13.12-2.05 1.95-5.99 2.66-2.52.45-4.06.45-6.23.45-1.22 0-1.08-1.3-1.08-1.3V26.16c0-.16.12-.28.27-.28h3.6c.15 0 .27.12.27.28v8.5s.01.52.32.52c.3 0 4.52.1 8.54-3.16 0 0 .44-.26.44.17v2.25zm73.18-5.55l-4.41-6.48a5.07 5.07 0 0 0-4.19-2.21H22.74c-1.2 0-2 1.26-1.48 2.34l2.42 5.1.92 1.93a5.07 5.07 0 0 1 0 4.35l-.85 1.79-2.49 5.24a1.64 1.64 0 0 0 1.48 2.34h86.39c1.68 0 3.24-.83 4.19-2.21l4.41-6.48a5.07 5.07 0 0 0 0-5.71zm-.99 14.2a1.7 1.7 0 1 1 0-3.4 1.7 1.7 0 0 1 0 3.4m0-3.72a2.02 2.02 0 1 0 0 4.04 2.02 2.02 0 0 0 0-4.04"/><path d="M116.25 41.23v-.75h.7c.4 0 .4.3.4.4 0 .33-.41.35-.46.35h-.64zm1.42-.35c0-.53-.38-.71-.73-.71h-1.01v2.45h.32v-1.07h.49l.57 1.07h.36l-.59-1.1c.27-.05.59-.23.59-.64z"/></g></svg>