<svg viewBox="0 0 140 65" xmlns="http://www.w3.org/2000/svg"><g fill-rule="evenodd" fill-opacity=".95"><path d="M8.27 27.18c-1.61 0-3.33.52-3.33 1.8 0 1.15 1.56 1.48 3.44 1.74 2.54.33 5.03.75 5.03 3.14 0 2.38-2.72 3.13-5.14 3.13-2.24 0-4.39-.67-5.37-2.44l1.3-.63c.82 1.24 2.52 1.85 4.07 1.85 1.54 0 3.58-.4 3.58-1.96.01-1.31-1.76-1.69-3.66-1.93-2.43-.32-4.8-.78-4.8-2.92C3.35 26.76 6.05 26 8.24 26c1.89 0 3.68.32 4.8 1.91l-1.2.62c-.68-.92-2.15-1.34-3.57-1.35z"/><path d="M19.21 29.17c2.74 0 4.66 1.6 4.66 3.9 0 2.26-1.96 3.85-4.66 3.85s-4.63-1.59-4.63-3.85c0-2.3 1.96-3.9 4.63-3.9zm.02 1.13c-1.83 0-3.17 1.11-3.17 2.77 0 1.57 1.32 2.68 3.15 2.68 1.83 0 3.17-1.11 3.19-2.68 0-1.66-1.38-2.77-3.17-2.77z" fill-rule="nonzero"/><path d="M25.2 29.32h1.36l.07 1.19a3.94 3.94 0 0 1 3.06-1.3c2.27 0 3.93 1.27 3.93 3.46v4.11h-1.48v-4.1c0-1.43-1.02-2.32-2.72-2.32-1.63.01-2.75 1.09-2.75 2.43v4H25.2v-7.47zM37.57 40.3h-1.6l1.87-3.62-3.6-7.35h1.68l1.76 3.88.98 2.13.96-2.12 1.97-3.89h1.63zm16.98-7.06h-.32l-4.6-5.14v8.68h-1.57V26.22h1.88l4.46 5.2 4.43-5.2h1.88v10.56h-1.57v-8.65zm14.58 3.54l-.07-1.19c-.8.9-1.86 1.3-3.11 1.31-2.28 0-3.9-1.28-3.9-3.45v-4.12h1.49v4.1c0 1.44 1.01 2.33 2.72 2.33 1.63-.02 2.75-1.1 2.75-2.43v-4h1.48v7.45h-1.35zM77.88 31a3.9 3.9 0 0 0-2.52-.73c-1.23-.02-2.23.34-2.2 1.08.02.74 1.1 1 2.23 1.1 1.63.17 3.8.45 3.77 2.28-.04 1.5-1.74 2.24-3.75 2.24-1.5 0-2.99-.35-4-1.4l.85-.87c.8.82 2.08 1.15 3.19 1.15.97 0 2.23-.26 2.26-1.16.02-.82-1.03-1.06-2.4-1.2-1.73-.17-3.59-.55-3.59-2.13 0-1.59 1.9-2.2 3.62-2.2 1.35 0 2.45.28 3.4 1l-.84.82-.02.01z"/><path d="M82.08 27.07c0 1.07-1.96 1.07-1.96-.02 0-1.08 1.96-1.07 1.96.02zm-1.74 9.71h1.48V29.3h-1.48v7.48z" fill-rule="nonzero"/><path d="M91.25 35.77a5.06 5.06 0 0 1-3.34 1.15c-2.55 0-4.67-1.37-4.67-3.86 0-2.5 2.08-3.86 4.67-3.86a4.96 4.96 0 0 1 3.24 1.11l-.94.82a3.63 3.63 0 0 0-2.26-.76c-1.77 0-3.2 1.01-3.2 2.68 0 1.74 1.44 2.69 3.18 2.69.85.02 1.68-.26 2.34-.79l1 .83h-.02zm10.16-8.59c-1.61 0-3.33.52-3.33 1.8 0 1.15 1.56 1.48 3.44 1.74 2.53.33 5.03.75 5.03 3.13 0 2.37-2.73 3.13-5.16 3.13-2.24 0-4.38-.67-5.37-2.44l1.3-.64c.82 1.25 2.53 1.86 4.08 1.86 1.56 0 3.58-.4 3.58-1.96.02-1.31-1.75-1.7-3.66-1.93-2.44-.32-4.82-.79-4.82-2.93-.01-2.18 2.68-2.94 4.88-2.94 1.88 0 3.67.32 4.8 1.91l-1.2.62c-.69-.92-2.16-1.34-3.57-1.35zm7.95-.94v4.33c.76-.98 1.96-1.31 3.1-1.33 2.52 0 3.75 1.39 3.75 3.44v4.1h-1.48V32.7c0-1.46-.9-2.29-2.54-2.29-1.64 0-2.83 1.06-2.83 2.42v3.95h-1.48V26.22h1.48v.02z"/><path d="M122 29.17c2.73 0 4.65 1.6 4.65 3.9 0 2.26-1.96 3.85-4.65 3.85-2.7 0-4.64-1.59-4.64-3.85 0-2.3 1.98-3.9 4.64-3.9zm.01 1.13c-1.82 0-3.16 1.11-3.16 2.77 0 1.57 1.32 2.68 3.15 2.68 1.83 0 3.17-1.11 3.18-2.68 0-1.66-1.37-2.77-3.17-2.77zm5.79-.94h1.41l.07 1.43a4.2 4.2 0 0 1 3.45-1.56c2.57.05 4.45 1.56 4.45 3.85 0 2.34-1.87 3.87-4.55 3.87-1.26 0-2.68-.45-3.38-1.51v4.86h-1.45V29.36zm7.9 3.74c0-1.67-1.33-2.67-3.16-2.67-1.86 0-3.13 1.15-3.13 2.67 0 1.53 1.32 2.67 3.13 2.68 1.81.02 3.16-1 3.16-2.68z" fill-rule="nonzero"/></g></svg>