<svg viewBox="0 0 140 65" xmlns="http://www.w3.org/2000/svg" xmlns:xlink="http://www.w3.org/1999/xlink"><defs><path id="a" d="M.03.12h3.53v3.52H.03z"/></defs><g fill="none" fill-rule="evenodd"><path d="M42.65 30.37c-5.21-3.08-13.82-3.37-18.8-1.86a1.5 1.5 0 1 1-.88-2.88c5.72-1.73 15.22-1.4 21.23 2.15.72.42.95 1.35.53 2.06-.43.72-1.36.95-2.08.53m-.17 4.57c-.36.59-1.14.77-1.73.4-4.35-2.65-10.98-3.42-16.13-1.87-.66.2-1.37-.17-1.57-.83-.2-.67.17-1.37.84-1.57 5.88-1.78 13.18-.92 18.18 2.14.6.36.78 1.14.41 1.73m-1.98 4.38c-.29.48-.9.62-1.38.33-3.8-2.3-8.59-2.83-14.22-1.55a1 1 0 1 1-.45-1.96c6.17-1.4 11.45-.8 15.72 1.8a1 1 0 0 1 .33 1.38M33.08 16.1A16.14 16.14 0 0 0 16.9 32.2c0 8.9 7.24 16.11 16.18 16.11s16.18-7.2 16.18-16.1c0-8.9-7.24-16.1-16.18-16.1m27.84 14.85c-2.79-.66-3.29-1.13-3.29-2.1 0-.93.88-1.55 2.18-1.55 1.26 0 2.5.47 3.82 1.44a.18.18 0 0 0 .25-.04l1.37-1.91a.18.18 0 0 0-.04-.25 8.28 8.28 0 0 0-5.36-1.85c-3.02 0-5.13 1.8-5.13 4.38 0 2.76 1.82 3.74 4.96 4.5 2.68.61 3.13 1.12 3.13 2.04 0 1.02-.91 1.65-2.38 1.65-1.63 0-2.96-.55-4.45-1.83a.18.18 0 0 0-.26.02l-1.53 1.81a.18.18 0 0 0 .02.26 9.14 9.14 0 0 0 6.16 2.35c3.25 0 5.35-1.77 5.35-4.5 0-2.32-1.4-3.6-4.8-4.42m14.51 3.1c0 1.95-1.2 3.31-2.94 3.31-1.7 0-3-1.42-3-3.31 0-1.9 1.3-3.32 3-3.32s2.94 1.4 2.94 3.32m-2.36-5.84a4.4 4.4 0 0 0-3.52 1.68v-1.27c0-.1-.08-.18-.18-.18h-2.5c-.1 0-.18.08-.18.18v14.15c0 .1.08.18.18.18h2.5c.1 0 .18-.08.18-.18v-4.47a4.5 4.5 0 0 0 3.52 1.59c2.62 0 5.27-2 5.27-5.84s-2.65-5.84-5.27-5.84m12.06 9.18c-1.79 0-3.14-1.44-3.14-3.34 0-1.91 1.3-3.3 3.1-3.3s3.17 1.44 3.17 3.34-1.32 3.3-3.13 3.3m0-9.18a5.89 5.89 0 0 0-6.01 5.88 5.83 5.83 0 0 0 5.97 5.82 5.89 5.89 0 0 0 6.03-5.86 5.85 5.85 0 0 0-5.99-5.84m13.19.23h-2.75v-2.8c0-.1-.08-.19-.18-.19h-2.5c-.1 0-.19.08-.19.18v2.8h-1.2c-.1 0-.18.09-.18.19v2.14c0 .1.08.18.18.18h1.2v5.54c0 2.23 1.12 3.37 3.33 3.37.9 0 1.64-.19 2.34-.58.06-.03.1-.1.1-.16v-2.04a.18.18 0 0 0-.27-.16c-.48.24-.95.35-1.47.35-.8 0-1.16-.36-1.16-1.17v-5.15h2.75c.1 0 .19-.08.19-.18v-2.14c0-.1-.08-.18-.19-.18m9.6.01v-.35c0-1.01.39-1.46 1.26-1.46.52 0 .94.1 1.41.26a.18.18 0 0 0 .24-.18v-2.1a.18.18 0 0 0-.13-.17 6.9 6.9 0 0 0-2.08-.3c-2.3 0-3.53 1.3-3.53 3.75v.52h-1.2c-.1 0-.19.09-.19.19v2.15c0 .1.09.18.19.18h1.2v8.54c0 .1.08.18.18.18h2.5c.1 0 .19-.08.19-.18v-8.54h2.33l3.58 8.54c-.4.9-.8 1.07-1.35 1.07-.44 0-.9-.13-1.38-.39a.19.19 0 0 0-.14-.01.18.18 0 0 0-.11.1l-.85 1.85c-.04.09 0 .19.08.24.88.47 1.68.68 2.67.68 1.85 0 2.87-.86 3.77-3.16l4.34-11.17a.18.18 0 0 0-.17-.24h-2.6a.18.18 0 0 0-.18.12l-2.67 7.58-2.92-7.59a.18.18 0 0 0-.17-.11h-4.27zm-5.56-.01h-2.5c-.1 0-.19.08-.19.18v10.86c0 .1.08.18.18.18h2.5c.1 0 .19-.08.19-.18V28.63c0-.1-.08-.18-.18-.18m-1.24-4.95a1.79 1.79 0 1 0 0 3.57 1.79 1.79 0 1 0 0-3.57" fill="#1FD760"/><g transform="translate(121.24 28.3)"><mask id="b" fill="#fff"><use xlink:href="#a"/></mask><path d="M1.9 1.22h-.47v.59h.46c.23 0 .37-.12.37-.3s-.14-.29-.37-.29m.3.83l.5.7h-.42l-.45-.64h-.39v.64h-.35V.9h.83c.43 0 .7.22.7.59 0 .3-.17.48-.42.55M1.8.3C.9.3.22 1 .22 1.88c0 .88.67 1.58 1.57 1.58s1.59-.71 1.59-1.59C3.38 1 2.7.3 1.8.3m0 3.34c-1 0-1.77-.8-1.77-1.76a1.77 1.77 0 0 1 3.53 0c0 .95-.78 1.76-1.77 1.76" fill="#FFF" mask="url(#b)"/></g></g></svg>