<svg viewBox="0 0 140 65" xmlns="http://www.w3.org/2000/svg"><g fill="none" fill-rule="evenodd"><path fill="#FFCB04" d="M9 43.18h121.97V21H9z"/><g fill="#D71920"><path d="M56.06 30.85h-.83c-.27 0-.37-.43-.4-.76l-.4-3.53c0-.28-.04-.52.24-.52h.8c.24.02.35.35.38.72l.41 3.68c.04.32-.05.42-.2.41zm3.65 2.93a1.83 1.83 0 0 0-1.07-1.47c-.36-.14-.55-.07-.07-.4.44-.3.84-.99.67-1.98l-.5-4.16c-.14-1.14-1.05-2.24-2-2.26h-5.7l.39 3.28 1.64 13.89h3.03l-.81-7.16h.86c.36.01.6.18.68.8l.76 6.36h2.9l-.78-6.9z" fill-rule="nonzero"/><path d="M50.76 40.68h.4l-.28-2.59h-2.37l-.56-4.53h2.3L50 30.89h-2.39l-.53-4.79h2.32l-.26-2.6h-5.47l.21 1.79 1.83 15.39zm-6.88-2.74c.05.4-.06.79-.2 1.12-.43.94-1.36 1.6-1.96 1.6h-2.16c-.61.02-1-.36-1.37-.78-.33.37-.89.75-1.33.79h-2.54c-2.15-.14-2.23-1.88-2.43-3.47l-1.33-11.7-.23-2h3.03l1.67 14.1c.04.22.04.37.24.37h.9c.2 0 .29-.18.26-.4l-1.6-14.06h3.02l1.63 14.03c.02.17.04.44.22.43h.89c.17 0 .19-.2.15-.52L39.13 23.5h3.03l1.72 14.43zm-26.7 2.74L15.5 26.4h-1.84l-.32-2.9h6.64l.28 2.9h-1.73l1.65 14.28zm100.4-14.04l.57 4.34c.13.62.56.8 1.07 1.1l3.17 1.63c.2.1.5.46.55.95l.3 2.77c.02.14.06.49-.21.49l-.8-.01c-.2 0-.32-.24-.35-.38l-.4-2.87h-2.87l.33 3.73c.1 1.07.94 2.29 2.33 2.29h3.16c.94 0 1.98-.75 1.88-1.82l-.54-5.88c-.05-.57-.76-1.09-1.05-1.3a9.16 9.16 0 0 0-1.36-.74l-1.65-.73c-.83-.37-.83-1-.87-1.22l-.4-2.56c-.04-.3 0-.46.25-.46h.76c.14 0 .34.2.36.42l.4 2.85h3.1l-.37-3.47c-.07-1.06-.91-2.25-2.25-2.26h-3.77c-.45 0-1.04.26-1.34.84a1.8 1.8 0 0 0-.15 1.08l.15 1.21z"/><path d="M113.62 38.06h-.98l-.08-.72-1.28-11.24h.95c.14.01.26.18.33.37.02.07.04.14.04.2l1.22 10.81c.06.53-.05.58-.2.58m3.47.9l-1.56-13.38c-.21-1.2-1.23-2.06-2.24-2.06h-5.45l.4 3.21 1.74 13.95h5.8a1.54 1.54 0 0 0 1.3-1.7m-13.54-8.13h-.82c-.28 0-.37-.43-.4-.76l-.4-3.53c-.01-.28-.05-.52.23-.52h.79c.26.02.36.35.4.72l.4 3.68c.04.32-.04.42-.2.41zm4.04 6.33l-.39-3.4a1.83 1.83 0 0 0-1.07-1.47c-.36-.14-.54-.07-.07-.4.44-.3.84-.99.68-1.98l-.51-4.16c-.14-1.14-1.04-2.24-2-2.26h-5.69l.24 2.03 1.78 15.14h3.03l-.74-6.63-.06-.53h.85c.36.01.6.18.68.8l.76 6.36h2.9l-.4-3.5zm-12.35.94h-.72c-.16 0-.3-.13-.39-.27a.9.9 0 0 1-.07-.21l-1.32-11.2c-.04-.26.03-.52.26-.52h.76c.12 0 .28.12.37.28.05.07.09.15.1.23l1.3 11.03c.05.46-.03.65-.29.66m3.3.08l-.2-1.69-1.34-11.1c-.21-1.16-1.28-1.93-2.04-1.9h-3.59c-.8.04-1.32.39-1.56.94-.13.32-.18.72-.13 1.16l.13 1.12 1.34 11.42c.1.92.61 1.9 1.55 2.33.26.11.54.18.85.2h3.52a1.4 1.4 0 0 0 1.26-.75c.2-.39.3-.94.2-1.73" fill-rule="nonzero"/><path d="M89.36 39.86c.11-.2.18-.43.15-.64l-.15-1.39-.3-2.8h-2.84l.26 2.62c.05.36.02.45-.3.44h-.68c-.32 0-.4-.37-.44-.69l-.86-7.5-.4-3.44c-.01-.2-.03-.43.23-.43h.77c.34 0 .41.51.43.62l.3 2.65h2.8l-.45-3.85c-.2-1.17-1.15-1.97-1.9-1.94h-3.86c-.21 0-.83.22-1.18.74-.2.26-.31.62-.26 1.06l.26 2.3 1.22 11.06c.1 1.28 1.12 2 1.68 2h4.46c.31 0 .81-.36 1.05-.81m-8.85.82h.24l-.25-2.44-.01-.15H78.1l-.57-4.53h2.3l-.24-2.67H77.2l-.53-4.79H79l-.27-2.6h-5.46l.36 3.07 1.4 11.75.28 2.36z"/><path d="M69.35 30.85h-.83c-.27 0-.37-.43-.4-.76l-.39-3.53c-.01-.28-.04-.52.24-.52h.78c.25.02.36.35.4.72l.4 3.68c.04.32-.05.42-.2.41zm4.06 6.64l-.42-3.71a1.83 1.83 0 0 0-1.07-1.47c-.36-.14-.54-.07-.07-.4.44-.3.84-.99.68-1.98l-.51-4.16c-.14-1.14-1.04-2.24-2-2.26h-5.68l2.03 17.17h3.02l-.75-6.63-.06-.53h.86c.35.01.6.18.67.8l.76 6.36h2.9l-.36-3.19zm-46.62.63h-.73c-.16 0-.3-.13-.37-.28a.56.56 0 0 1-.08-.2l-1.32-11.2c-.04-.26.03-.52.26-.52h.77c.1 0 .26.12.37.28.04.07.07.15.08.23l1.3 11.03c.06.46-.02.65-.28.66m3.3.08l-.2-1.58-1.34-11.2c-.22-1.17-1.28-1.94-2.04-1.91h-3.59c-1.27.07-1.83.88-1.68 2.1l1.47 12.54c.12 1.17.9 2.45 2.4 2.53h3.5c.5-.02 1-.23 1.27-.78.2-.38.29-.92.2-1.7" fill-rule="nonzero"/></g></g></svg>